<mxfile host="app.diagrams.net" modified="2021-05-01T08:59:44.580Z" agent="5.0 (Windows)" etag="8polva_avyPkPs1OGjkL" version="14.6.3" type="github">
  <diagram id="D2Kagv_ZQXwV2hKBQd58" name="Page-1">
    <mxGraphModel dx="1490" dy="609" grid="1" gridSize="10" guides="1" tooltips="1" connect="1" arrows="1" fold="1" page="1" pageScale="1" pageWidth="2339" pageHeight="3300" math="0" shadow="0">
      <root>
        <mxCell id="0" />
        <mxCell id="1" parent="0" />
        <mxCell id="JgRqBhruN-MorIZ5BhJ4-11" value="" style="rounded=0;whiteSpace=wrap;html=1;fillColor=#1e1e1e;" parent="1" vertex="1">
          <mxGeometry x="540" y="2070" width="430" height="350" as="geometry" />
        </mxCell>
        <mxCell id="JgRqBhruN-MorIZ5BhJ4-7" value="" style="rounded=0;whiteSpace=wrap;html=1;fillColor=#1e1e1e;" parent="1" vertex="1">
          <mxGeometry x="320" y="1150" width="910" height="720" as="geometry" />
        </mxCell>
        <mxCell id="JgRqBhruN-MorIZ5BhJ4-5" value="" style="rounded=0;whiteSpace=wrap;html=1;fillColor=#dae8fc;strokeColor=#6c8ebf;" parent="1" vertex="1">
          <mxGeometry x="130" y="200" width="1280" height="70" as="geometry" />
        </mxCell>
        <mxCell id="JgRqBhruN-MorIZ5BhJ4-2" value="" style="rounded=0;whiteSpace=wrap;html=1;strokeColor=none;fillColor=#1e1e1e;" parent="1" vertex="1">
          <mxGeometry x="130" y="270" width="1280" height="620" as="geometry" />
        </mxCell>
        <mxCell id="JgRqBhruN-MorIZ5BhJ4-1" value="&lt;div style=&quot;color: rgb(212, 212, 212); background-color: rgb(30, 30, 30); font-family: &amp;quot;consolas&amp;quot;, &amp;quot;courier new&amp;quot;, monospace; font-weight: normal; font-size: 24px; line-height: 32px;&quot;&gt;&lt;div&gt;&lt;span style=&quot;color: #569cd6&quot;&gt;cmake_minimum_required&lt;/span&gt;&lt;span style=&quot;color: #d4d4d4&quot;&gt;(VERSION&amp;nbsp;3.5)&lt;/span&gt;&lt;/div&gt;&lt;br&gt;&lt;div&gt;&lt;span style=&quot;color: #569cd6&quot;&gt;set&lt;/span&gt;&lt;span style=&quot;color: #d4d4d4&quot;&gt;(CXX_STANDARD_REQUIRED&amp;nbsp;&lt;/span&gt;&lt;span style=&quot;color: #569cd6&quot;&gt;ON&lt;/span&gt;&lt;span style=&quot;color: #d4d4d4&quot;&gt;)&amp;nbsp;&lt;/span&gt;&lt;span style=&quot;color: #6a9955&quot;&gt;#Make&amp;nbsp;C++20&amp;nbsp;a&amp;nbsp;hard&amp;nbsp;requirement&lt;/span&gt;&lt;/div&gt;&lt;div&gt;&lt;span style=&quot;color: #569cd6&quot;&gt;set&lt;/span&gt;&lt;span style=&quot;color: #d4d4d4&quot;&gt;(CMAKE_CXX_STANDARD&amp;nbsp;20)&amp;nbsp;&lt;/span&gt;&lt;span style=&quot;color: #6a9955&quot;&gt;#&amp;nbsp;Default&amp;nbsp;C++&amp;nbsp;standard&amp;nbsp;for&amp;nbsp;targets&lt;/span&gt;&lt;/div&gt;&lt;br&gt;&lt;div&gt;&lt;span style=&quot;color: #569cd6&quot;&gt;project&lt;/span&gt;&lt;span style=&quot;color: #d4d4d4&quot;&gt;(HelloApp&amp;nbsp;VERSION&amp;nbsp;1.0.0&amp;nbsp;DESCRIPTION&amp;nbsp;&lt;/span&gt;&lt;span style=&quot;color: #ce9178&quot;&gt;&quot;The&amp;nbsp;leading&amp;nbsp;Hello&amp;nbsp;World&amp;nbsp;App&quot;&lt;/span&gt;&lt;span style=&quot;color: #d4d4d4&quot;&gt;&amp;nbsp;LANGUAGES&amp;nbsp;CXX)&amp;nbsp;&amp;nbsp;&lt;/span&gt;&lt;/div&gt;&lt;br&gt;&lt;div&gt;&lt;span style=&quot;color: #569cd6&quot;&gt;add_library&lt;/span&gt;&lt;span style=&quot;color: #d4d4d4&quot;&gt;(operations&amp;nbsp;STATIC&amp;nbsp;src/operations.cpp)&lt;/span&gt;&lt;/div&gt;&lt;div&gt;&lt;span style=&quot;color: #569cd6&quot;&gt;target_include_directories&lt;/span&gt;&lt;span style=&quot;color: #d4d4d4&quot;&gt;(operations&amp;nbsp;PUBLIC&amp;nbsp;&lt;/span&gt;&lt;span style=&quot;color: #569cd6&quot;&gt;${CMAKE_CURRENT_SOURCE_DIR}&lt;/span&gt;&lt;span style=&quot;color: #d4d4d4&quot;&gt;/include)&lt;/span&gt;&lt;/div&gt;&lt;div&gt;&lt;span style=&quot;color: #569cd6&quot;&gt;target_compile_features&lt;/span&gt;&lt;span style=&quot;color: #d4d4d4&quot;&gt;(operations&amp;nbsp;PUBLIC&amp;nbsp;cxx_std_20)&lt;/span&gt;&lt;/div&gt;&lt;br&gt;&lt;div&gt;&lt;span style=&quot;color: #569cd6&quot;&gt;add_library&lt;/span&gt;&lt;span style=&quot;color: #d4d4d4&quot;&gt;(logger&amp;nbsp;STATIC&amp;nbsp;logger/src/log.cpp)&lt;/span&gt;&lt;/div&gt;&lt;div&gt;&lt;span style=&quot;color: #569cd6&quot;&gt;target_include_directories&lt;/span&gt;&lt;span style=&quot;color: #d4d4d4&quot;&gt;(logger&amp;nbsp;PUBLIC&amp;nbsp;&lt;/span&gt;&lt;span style=&quot;color: #569cd6&quot;&gt;${CMAKE_CURRENT_SOURCE_DIR}&lt;/span&gt;&lt;span style=&quot;color: #d4d4d4&quot;&gt;/logger/include)&lt;/span&gt;&lt;/div&gt;&lt;br&gt;&lt;div&gt;&lt;span style=&quot;color: #569cd6&quot;&gt;add_executable&lt;/span&gt;&lt;span style=&quot;color: #d4d4d4&quot;&gt;(HelloAppBinary&amp;nbsp;main.cpp&amp;nbsp;src/dog.cpp)&lt;/span&gt;&lt;/div&gt;&lt;div&gt;&lt;span style=&quot;color: #569cd6&quot;&gt;target_link_libraries&lt;/span&gt;&lt;span style=&quot;color: #d4d4d4&quot;&gt;(HelloAppBinary&amp;nbsp;PUBLIC&amp;nbsp;operations&amp;nbsp;logger)&lt;/span&gt;&lt;/div&gt;&lt;/div&gt;" style="text;whiteSpace=wrap;html=1;" parent="1" vertex="1">
          <mxGeometry x="180" y="300" width="550" height="590" as="geometry" />
        </mxCell>
        <mxCell id="JgRqBhruN-MorIZ5BhJ4-3" value="Text" style="text;html=1;strokeColor=none;fillColor=none;align=center;verticalAlign=middle;whiteSpace=wrap;rounded=0;" parent="1" vertex="1">
          <mxGeometry x="510" y="420" width="40" height="20" as="geometry" />
        </mxCell>
        <mxCell id="JgRqBhruN-MorIZ5BhJ4-4" value="&lt;font style=&quot;font-size: 41px&quot;&gt;Targets&lt;/font&gt;" style="text;html=1;strokeColor=none;fillColor=none;align=center;verticalAlign=middle;whiteSpace=wrap;rounded=0;" parent="1" vertex="1">
          <mxGeometry x="640" y="220" width="260" height="30" as="geometry" />
        </mxCell>
        <mxCell id="JgRqBhruN-MorIZ5BhJ4-6" value="&lt;div style=&quot;color: rgb(212, 212, 212); background-color: rgb(30, 30, 30); font-family: &amp;quot;consolas&amp;quot;, &amp;quot;courier new&amp;quot;, monospace; font-weight: normal; font-size: 24px; line-height: 32px;&quot;&gt;&lt;div&gt;&lt;span style=&quot;color: #c586c0&quot;&gt;#include&lt;/span&gt;&lt;span style=&quot;color: #569cd6&quot;&gt;&amp;nbsp;&lt;/span&gt;&lt;span style=&quot;color: #ce9178&quot;&gt;&amp;lt;iostream&amp;gt;&lt;/span&gt;&lt;/div&gt;&lt;div&gt;&lt;span style=&quot;color: #c586c0&quot;&gt;#include&lt;/span&gt;&lt;span style=&quot;color: #569cd6&quot;&gt;&amp;nbsp;&lt;/span&gt;&lt;span style=&quot;color: #ce9178&quot;&gt;&quot;operations.h&quot;&lt;/span&gt;&lt;/div&gt;&lt;div&gt;&lt;span style=&quot;color: #c586c0&quot;&gt;#include&lt;/span&gt;&lt;span style=&quot;color: #569cd6&quot;&gt;&amp;nbsp;&lt;/span&gt;&lt;span style=&quot;color: #ce9178&quot;&gt;&quot;dog.h&quot;&lt;/span&gt;&lt;/div&gt;&lt;div&gt;&lt;span style=&quot;color: #c586c0&quot;&gt;#include&lt;/span&gt;&lt;span style=&quot;color: #569cd6&quot;&gt;&amp;nbsp;&lt;/span&gt;&lt;span style=&quot;color: #ce9178&quot;&gt;&quot;log.h&quot;&lt;/span&gt;&lt;/div&gt;&lt;br&gt;&lt;div&gt;&lt;span style=&quot;color: #569cd6&quot;&gt;int&lt;/span&gt;&lt;span style=&quot;color: #d4d4d4&quot;&gt;&amp;nbsp;&lt;/span&gt;&lt;span style=&quot;color: #dcdcaa&quot;&gt;main&lt;/span&gt;&lt;span style=&quot;color: #d4d4d4&quot;&gt;(){&lt;/span&gt;&lt;/div&gt;&lt;br&gt;&lt;div&gt;&lt;span style=&quot;color: #d4d4d4&quot;&gt;&amp;nbsp;&amp;nbsp;&amp;nbsp;&amp;nbsp;&lt;/span&gt;&lt;span style=&quot;color: #4ec9b0&quot;&gt;Dog&lt;/span&gt;&lt;span style=&quot;color: #d4d4d4&quot;&gt;&amp;nbsp;&lt;/span&gt;&lt;span style=&quot;color: #9cdcfe&quot;&gt;dog&lt;/span&gt;&lt;span style=&quot;color: #d4d4d4&quot;&gt;(&lt;/span&gt;&lt;span style=&quot;color: #ce9178&quot;&gt;&quot;Flitzy&quot;&lt;/span&gt;&lt;span style=&quot;color: #d4d4d4&quot;&gt;);&lt;/span&gt;&lt;/div&gt;&lt;div&gt;&lt;span style=&quot;color: #d4d4d4&quot;&gt;&amp;nbsp;&amp;nbsp;&amp;nbsp;&amp;nbsp;&lt;/span&gt;&lt;span style=&quot;color: #9cdcfe&quot;&gt;dog&lt;/span&gt;&lt;span style=&quot;color: #d4d4d4&quot;&gt;.&lt;/span&gt;&lt;span style=&quot;color: #dcdcaa&quot;&gt;print_info&lt;/span&gt;&lt;span style=&quot;color: #d4d4d4&quot;&gt;();&lt;/span&gt;&lt;/div&gt;&lt;br&gt;&lt;div&gt;&lt;span style=&quot;color: #6a9955&quot;&gt;&amp;nbsp;&amp;nbsp;&amp;nbsp;&amp;nbsp;//operations&lt;/span&gt;&lt;/div&gt;&lt;div&gt;&lt;span style=&quot;color: #d4d4d4&quot;&gt;&amp;nbsp;&amp;nbsp;&amp;nbsp;&amp;nbsp;&lt;/span&gt;&lt;span style=&quot;color: #569cd6&quot;&gt;double&lt;/span&gt;&lt;span style=&quot;color: #d4d4d4&quot;&gt;&amp;nbsp;&lt;/span&gt;&lt;span style=&quot;color: #9cdcfe&quot;&gt;result&lt;/span&gt;&lt;span style=&quot;color: #d4d4d4&quot;&gt;&amp;nbsp;=&amp;nbsp;&lt;/span&gt;&lt;span style=&quot;color: #dcdcaa&quot;&gt;add&lt;/span&gt;&lt;span style=&quot;color: #d4d4d4&quot;&gt;(&lt;/span&gt;&lt;span style=&quot;color: #b5cea8&quot;&gt;10&lt;/span&gt;&lt;span style=&quot;color: #d4d4d4&quot;&gt;,&lt;/span&gt;&lt;span style=&quot;color: #b5cea8&quot;&gt;20&lt;/span&gt;&lt;span style=&quot;color: #d4d4d4&quot;&gt;);&lt;/span&gt;&lt;/div&gt;&lt;div&gt;&lt;span style=&quot;color: #d4d4d4&quot;&gt;&amp;nbsp;&amp;nbsp;&amp;nbsp;&amp;nbsp;&lt;/span&gt;&lt;span style=&quot;color: #4ec9b0&quot;&gt;std&lt;/span&gt;&lt;span style=&quot;color: #d4d4d4&quot;&gt;::&lt;/span&gt;&lt;span style=&quot;color: #9cdcfe&quot;&gt;cout&lt;/span&gt;&lt;span style=&quot;color: #d4d4d4&quot;&gt;&amp;nbsp;&lt;/span&gt;&lt;span style=&quot;color: #dcdcaa&quot;&gt;&amp;lt;&amp;lt;&lt;/span&gt;&lt;span style=&quot;color: #d4d4d4&quot;&gt;&amp;nbsp;&lt;/span&gt;&lt;span style=&quot;color: #ce9178&quot;&gt;&quot;result&amp;nbsp;:&amp;nbsp;&quot;&lt;/span&gt;&lt;span style=&quot;color: #d4d4d4&quot;&gt;&amp;nbsp;&lt;/span&gt;&lt;span style=&quot;color: #dcdcaa&quot;&gt;&amp;lt;&amp;lt;&lt;/span&gt;&lt;span style=&quot;color: #d4d4d4&quot;&gt;&amp;nbsp;&lt;/span&gt;&lt;span style=&quot;color: #9cdcfe&quot;&gt;result&lt;/span&gt;&lt;span style=&quot;color: #d4d4d4&quot;&gt;&amp;nbsp;&lt;/span&gt;&lt;span style=&quot;color: #dcdcaa&quot;&gt;&amp;lt;&amp;lt;&lt;/span&gt;&lt;span style=&quot;color: #d4d4d4&quot;&gt;&amp;nbsp;&lt;/span&gt;&lt;span style=&quot;color: #4ec9b0&quot;&gt;std&lt;/span&gt;&lt;span style=&quot;color: #d4d4d4&quot;&gt;::&lt;/span&gt;&lt;span style=&quot;color: #dcdcaa&quot;&gt;endl&lt;/span&gt;&lt;span style=&quot;color: #d4d4d4&quot;&gt;;&lt;/span&gt;&lt;/div&gt;&lt;br&gt;&lt;div&gt;&lt;span style=&quot;color: #6a9955&quot;&gt;&amp;nbsp;&amp;nbsp;&amp;nbsp;&amp;nbsp;//Logger&lt;/span&gt;&lt;/div&gt;&lt;div&gt;&lt;span style=&quot;color: #d4d4d4&quot;&gt;&amp;nbsp;&amp;nbsp;&amp;nbsp;&lt;/span&gt;&lt;span style=&quot;color: #dcdcaa&quot;&gt;log_data&lt;/span&gt;&lt;span style=&quot;color: #d4d4d4&quot;&gt;(&lt;/span&gt;&lt;span style=&quot;color: #ce9178&quot;&gt;&quot;Watch&amp;nbsp;out!&quot;&lt;/span&gt;&lt;span style=&quot;color: #d4d4d4&quot;&gt;,&lt;/span&gt;&lt;span style=&quot;color: #4ec9b0&quot;&gt;LogType&lt;/span&gt;&lt;span style=&quot;color: #d4d4d4&quot;&gt;::&lt;/span&gt;&lt;span style=&quot;color: #4fc1ff&quot;&gt;WARNING&lt;/span&gt;&lt;span style=&quot;color: #d4d4d4&quot;&gt;);&lt;/span&gt;&lt;/div&gt;&lt;br&gt;&lt;div&gt;&lt;span style=&quot;color: #d4d4d4&quot;&gt;&amp;nbsp;&amp;nbsp;&amp;nbsp;&amp;nbsp;&lt;/span&gt;&lt;span style=&quot;color: #c586c0&quot;&gt;return&lt;/span&gt;&lt;span style=&quot;color: #d4d4d4&quot;&gt;&amp;nbsp;&lt;/span&gt;&lt;span style=&quot;color: #b5cea8&quot;&gt;0&lt;/span&gt;&lt;span style=&quot;color: #d4d4d4&quot;&gt;;&lt;/span&gt;&lt;/div&gt;&lt;div&gt;&lt;span style=&quot;color: #d4d4d4&quot;&gt;}&lt;/span&gt;&lt;/div&gt;&lt;/div&gt;" style="text;whiteSpace=wrap;html=1;" parent="1" vertex="1">
          <mxGeometry x="430" y="1190" width="550" height="620" as="geometry" />
        </mxCell>
        <mxCell id="JgRqBhruN-MorIZ5BhJ4-8" value="&lt;font style=&quot;font-size: 19px&quot;&gt;main.cpp&lt;/font&gt;" style="rounded=0;whiteSpace=wrap;html=1;fillColor=#d5e8d4;strokeColor=#82b366;" parent="1" vertex="1">
          <mxGeometry x="580" y="2190" width="190" height="60" as="geometry" />
        </mxCell>
        <mxCell id="JgRqBhruN-MorIZ5BhJ4-9" value="&lt;font style=&quot;font-size: 21px&quot;&gt;include/&lt;/font&gt;" style="rounded=0;whiteSpace=wrap;html=1;fillColor=#dae8fc;strokeColor=none;" parent="1" vertex="1">
          <mxGeometry x="580" y="2090" width="190" height="60" as="geometry" />
        </mxCell>
        <mxCell id="JgRqBhruN-MorIZ5BhJ4-10" value="&lt;font style=&quot;font-size: 19px&quot;&gt;src/&lt;/font&gt;" style="rounded=0;whiteSpace=wrap;html=1;fillColor=#dae8fc;strokeColor=#6c8ebf;" parent="1" vertex="1">
          <mxGeometry x="580" y="2300" width="190" height="60" as="geometry" />
        </mxCell>
        <mxCell id="JgRqBhruN-MorIZ5BhJ4-12" value="" style="rounded=0;whiteSpace=wrap;html=1;fillColor=#dae8fc;strokeColor=none;" parent="1" vertex="1">
          <mxGeometry x="770" y="2090" width="170" height="80" as="geometry" />
        </mxCell>
        <mxCell id="JgRqBhruN-MorIZ5BhJ4-13" value="&lt;div style=&quot;font-size: 17px&quot;&gt;&lt;font style=&quot;font-size: 17px&quot;&gt;operations.h&lt;/font&gt;&lt;/div&gt;&lt;div style=&quot;font-size: 17px&quot;&gt;&lt;font style=&quot;font-size: 17px&quot;&gt;log.h&lt;/font&gt;&lt;/div&gt;&lt;div style=&quot;font-size: 17px&quot;&gt;&lt;font style=&quot;font-size: 17px&quot;&gt;dog.h&lt;/font&gt;&lt;/div&gt;&lt;div style=&quot;font-size: 17px&quot;&gt;&lt;font style=&quot;font-size: 17px&quot;&gt;&lt;br&gt;&lt;/font&gt;&lt;/div&gt;&lt;div style=&quot;font-size: 17px&quot;&gt;&lt;font style=&quot;font-size: 17px&quot;&gt;&lt;br&gt;&lt;/font&gt;&lt;/div&gt;" style="text;html=1;strokeColor=none;fillColor=none;align=center;verticalAlign=middle;whiteSpace=wrap;rounded=0;" parent="1" vertex="1">
          <mxGeometry x="790" y="2100" width="130" height="100" as="geometry" />
        </mxCell>
        <mxCell id="JgRqBhruN-MorIZ5BhJ4-14" value="" style="rounded=0;whiteSpace=wrap;html=1;fillColor=#dae8fc;strokeColor=none;" parent="1" vertex="1">
          <mxGeometry x="770" y="2300" width="170" height="80" as="geometry" />
        </mxCell>
        <mxCell id="JgRqBhruN-MorIZ5BhJ4-15" value="&lt;div style=&quot;font-size: 17px&quot;&gt;&lt;font style=&quot;font-size: 17px&quot;&gt;operations.cpp&lt;/font&gt;&lt;/div&gt;&lt;div style=&quot;font-size: 17px&quot;&gt;&lt;font style=&quot;font-size: 17px&quot;&gt;log.cpp&lt;/font&gt;&lt;/div&gt;&lt;div style=&quot;font-size: 17px&quot;&gt;&lt;font style=&quot;font-size: 17px&quot;&gt;dog.cpp&lt;/font&gt;&lt;/div&gt;&lt;div style=&quot;font-size: 17px&quot;&gt;&lt;font style=&quot;font-size: 17px&quot;&gt;&lt;br&gt;&lt;/font&gt;&lt;/div&gt;&lt;div style=&quot;font-size: 17px&quot;&gt;&lt;font style=&quot;font-size: 17px&quot;&gt;&lt;br&gt;&lt;/font&gt;&lt;/div&gt;" style="text;html=1;strokeColor=none;fillColor=none;align=center;verticalAlign=middle;whiteSpace=wrap;rounded=0;" parent="1" vertex="1">
          <mxGeometry x="790" y="2310" width="130" height="100" as="geometry" />
        </mxCell>
        <mxCell id="JgRqBhruN-MorIZ5BhJ4-16" value="&lt;font style=&quot;font-size: 27px&quot;&gt;operations.lib&lt;/font&gt;" style="rounded=0;whiteSpace=wrap;html=1;fillColor=#fff2cc;strokeColor=#d6b656;" parent="1" vertex="1">
          <mxGeometry x="1400" y="1370" width="240" height="110" as="geometry" />
        </mxCell>
        <mxCell id="JgRqBhruN-MorIZ5BhJ4-17" value="&lt;font style=&quot;font-size: 27px&quot;&gt;logger.lib&lt;/font&gt;" style="rounded=0;whiteSpace=wrap;html=1;fillColor=#fff2cc;strokeColor=#d6b656;" parent="1" vertex="1">
          <mxGeometry x="1900" y="1595" width="240" height="110" as="geometry" />
        </mxCell>
      </root>
    </mxGraphModel>
  </diagram>
</mxfile>
